Coordinates
version=1
nRows=43
nColumns=12
inDegrees=yes

Units are S.I. units (second, meters, Newtons, ...)
Angles are in degrees

endheader
time	SC_y	SC_z	SC_x	AC_y	AC_z	AC_x	GH_y	GH_z	GH_yy	EL_x	PS_y
       0.0              -25.35          20.97          78.82          51.33         -7.948         -14.92          132.5          77.28         -170.9          102.6           90.2
  0.009432              -25.35          20.97          78.81          51.34         -7.946         -14.92          132.5          77.27         -170.9          102.6          90.19
   0.01886              -25.35          20.98          78.81          51.34         -7.944         -14.91          132.5          77.26         -170.9          102.6          90.19
   0.02829              -25.35          20.98           78.8          51.34         -7.942         -14.91          132.5          77.24         -170.9          102.6          90.18
   0.03773              -25.36          20.98          78.79          51.34          -7.94         -14.91          132.5          77.23         -170.9          102.6          90.18
   0.04716              -25.36          20.98          78.78          51.35         -7.937         -14.91          132.5          77.22         -170.9          102.6          90.17
   0.05659              -25.36          20.99          78.77          51.35         -7.935         -14.91          132.5           77.2         -170.9          102.6          90.16
   0.06602              -25.36          20.99          78.76          51.35         -7.932          -14.9          132.5          77.19         -170.9          102.6          90.16
   0.07545              -25.36           21.0          78.75          51.36         -7.929          -14.9          132.4          77.17         -170.8          102.6          90.15
   0.08488              -25.37           21.0          78.74          51.36         -7.926          -14.9          132.4          77.15         -170.8          102.6          90.14
   0.09432              -25.37           21.0          78.72          51.36         -7.922          -14.9          132.4          77.13         -170.8          102.6          90.13
    0.1037              -25.37          21.01          78.71          51.37         -7.919         -14.89          132.4          77.11         -170.8          102.6          90.12
    0.1132              -25.38          21.01           78.7          51.37         -7.915         -14.89          132.4          77.09         -170.8          102.7          90.11
    0.1226              -25.38          21.02          78.68          51.38          -7.91         -14.89          132.4          77.06         -170.8          102.7           90.1
     0.132              -25.38          21.03          78.66          51.38         -7.906         -14.88          132.4          77.03         -170.8          102.7          90.09
    0.1415              -25.39          21.03          78.64          51.39           -7.9         -14.88          132.4          77.01         -170.8          102.7          90.08
    0.1509              -25.39          21.04          78.62          51.39         -7.895         -14.88          132.4          76.97         -170.8          102.7          90.06
    0.1603               -25.4          21.05           78.6           51.4         -7.889         -14.87          132.4          76.94         -170.8          102.7          90.05
    0.1698               -25.4          21.06          78.58          51.41         -7.882         -14.87          132.3           76.9         -170.8          102.7          90.03
    0.1792              -25.41          21.07          78.55          51.41         -7.875         -14.86          132.3          76.86         -170.8          102.7          90.01
    0.1886              -25.41          21.08          78.52          51.42         -7.867         -14.86          132.3          76.82         -170.8          102.7          89.99
    0.1981              -25.42          21.09          78.49          51.43         -7.859         -14.85          132.3          76.77         -170.8          102.7          89.97
    0.2075              -25.43           21.1          78.45          51.44         -7.849         -14.84          132.3          76.71         -170.8          102.7          89.95
    0.2169              -25.44          21.12          78.41          51.46         -7.839         -14.83          132.2          76.65         -170.8          102.7          89.92
    0.2264              -25.45          21.13          78.37          51.47         -7.827         -14.83          132.2          76.58         -170.8          102.7          89.89
    0.2358              -25.46          21.15          78.32          51.48         -7.814         -14.82          132.2          76.51         -170.8          102.7          89.86
    0.2452              -25.47          21.17          78.27           51.5         -7.799          -14.8          132.1          76.42         -170.7          102.7          89.82
    0.2547              -25.48          21.19          78.21          51.52         -7.782         -14.79          132.1          76.33         -170.7          102.8          89.78
    0.2641               -25.5          21.22          78.14          51.54         -7.764         -14.78          132.1          76.22         -170.7          102.8          89.73
    0.2735              -25.51          21.25          78.06          51.56         -7.742         -14.76          132.0           76.1         -170.7          102.8          89.67
    0.2829              -25.53          21.28          77.97          51.59         -7.718         -14.74          132.0          75.96         -170.7          102.8          89.61
    0.2924              -25.55          21.32          77.86          51.62          -7.69         -14.72          131.9           75.8         -170.7          102.8          89.54
    0.3018              -25.58          21.36          77.75          51.65         -7.658          -14.7          131.8          75.61         -170.6          102.9          89.46
    0.3112              -25.61          21.41          77.61           51.7         -7.621         -14.67          131.7           75.4         -170.6          102.9          89.36
    0.3207              -25.64          21.47          77.45          51.74         -7.577         -14.64          131.6          75.14         -170.6          102.9          89.25
    0.3301              -25.68          21.54          77.25           51.8         -7.525          -14.6          131.5          74.85         -170.5          103.0          89.12
    0.3395              -25.73          21.62          77.03          51.87         -7.464         -14.55          131.4           74.5         -170.5          103.0          88.97
     0.349              -25.79          21.72          76.76          51.95         -7.391          -14.5          131.2          74.07         -170.4          103.1          88.78
    0.3584              -25.86          21.83          76.43          52.05         -7.302         -14.43          131.0          73.56         -170.3          103.1          88.55
    0.3678              -25.95          21.98          76.03          52.17         -7.193         -14.35          130.8          72.94         -170.3          103.2          88.28
    0.3773              -26.05          22.16          75.53          52.31         -7.059         -14.25          130.5          72.17         -170.2          103.3          87.94
    0.3867              -26.18          22.38          74.91           52.5         -6.892         -14.12          130.1          71.21         -170.0          103.5          87.51
    0.3961              -26.35          22.66          74.13          52.73         -6.682         -13.96          129.6           70.0         -169.8          103.6          86.97
